<svg xmlns="http://www.w3.org/2000/svg" viewBox="0 0 720 520" width="720" height="520" role="img" aria-labelledby="t04 d04">
  <title id="t04">CRM ve Performans Raporları</title>
  <desc id="d04">Operatör verimliliği, ortalama yanıt süresi, kanal performansı ve müşteri memnuniyeti grafiklerini gösteren dashboard infografiği.</desc>

  <defs>
    <linearGradient id="bg04" x1="0" y1="0" x2="1" y2="1">
      <stop offset="0" stop-color="#F4F7FF"></stop>
      <stop offset="1" stop-color="#EAF0FF"></stop>
    </linearGradient>
    <filter id="shadow04" x="-20%" y="-20%" width="140%" height="140%">
      <feDropShadow dx="0" dy="6" stdDeviation="14" flood-color="#1B2A6B" flood-opacity="0.10"></feDropShadow>
    </filter>
    <filter id="softShadow04" x="-20%" y="-20%" width="140%" height="140%">
      <feDropShadow dx="0" dy="3" stdDeviation="6" flood-color="#1B2A6B" flood-opacity="0.10"></feDropShadow>
    </filter>
  </defs>

  <rect width="720" height="520" rx="24" fill="url(#bg04)"></rect>

  <text x="40" y="60" font-family="JetBrains Mono, monospace" font-size="10" letter-spacing="2" fill="#6B7280">04 — CRM &amp; PERFORMANS</text>
  <text x="40" y="92" font-family="Inter, sans-serif" font-size="16" font-weight="700" fill="#1F2937">Ölçemediğiniz şeyi büyütemezsiniz.</text>

  
  <g font-family="Inter, sans-serif">
    <g filter="url(#softShadow04)">
      <rect x="40" y="140" width="170" height="58" rx="14" fill="#FFFFFF"></rect>
      <text x="56" y="160" font-family="JetBrains Mono, monospace" font-size="9" letter-spacing="1.2" fill="#6B7280">ORT. YANIT SÜRESİ</text>
      <text x="56" y="184" font-size="18" font-weight="700" fill="#2752E8">15<tspan font-size="11" fill="#6B7280" font-weight="400"> dakika</tspan></text>
    </g>
    <g filter="url(#softShadow04)">
      <rect x="40" y="210" width="170" height="58" rx="14" fill="#FFFFFF"></rect>
      <text x="56" y="230" font-family="JetBrains Mono, monospace" font-size="9" letter-spacing="1.2" fill="#6B7280">GERİ BİLDİRİM</text>
      <text x="56" y="254" font-size="18" font-weight="700" fill="#7E4FFF">Değerlendir</text>
    </g>
    <g filter="url(#softShadow04)">
      <rect x="40" y="280" width="170" height="58" rx="14" fill="#FFFFFF"></rect>
      <text x="56" y="300" font-family="JetBrains Mono, monospace" font-size="9" letter-spacing="1.2" fill="#6B7280">OPERATÖR</text>
      <text x="56" y="324" font-size="18" font-weight="700" fill="#2752E8">Seçin</text>
    </g>
    <g filter="url(#softShadow04)">
      <rect x="40" y="350" width="170" height="58" rx="14" fill="#FFFFFF"></rect>
      <text x="56" y="370" font-family="JetBrains Mono, monospace" font-size="9" letter-spacing="1.2" fill="#6B7280">MEMNUNİYET</text>
      <text x="56" y="394" font-size="18" font-weight="700" fill="#22C55E">Ankete Katıl</text>
    </g>
  </g>

  
  <g filter="url(#shadow04)">
    <rect x="240" y="130" width="440" height="340" rx="20" fill="#FFFFFF"></rect>

    
    <text x="262" y="158" font-family="Inter, sans-serif" font-size="12" font-weight="700" fill="#1F2937">Müşteri Geri Bildirimleri</text>
    <text x="500" y="158" font-family="Inter, sans-serif" font-size="12" font-weight="700" fill="#7E4FFF">Operatör Seçin</text>
    <line x1="262" y1="168" x2="660" y2="168" stroke="#EEF2FA" stroke-width="1"></line>

    
    <g font-family="Inter, sans-serif">
      <g transform="translate(262 180)">
        <rect width="220" height="40" rx="10" fill="#F4F7FF"></rect>
        <circle cx="20" cy="20" r="12" fill="#2752E8"></circle>
        <text x="20" y="24" font-size="9" font-weight="600" text-anchor="middle" fill="#FFFFFF">AK</text>
        <text x="40" y="18" font-size="11" font-weight="600" fill="#1F2937">Ahmet Koç</text>
        <text x="40" y="32" font-size="9" fill="#6B7280">Karşılama süresi uzun</text>
        <text x="208" y="18" font-size="8" font-family="JetBrains Mono, monospace" text-anchor="end" fill="#9CA3AF">10:30</text>
        <text x="208" y="32" font-size="8" font-family="JetBrains Mono, monospace" text-anchor="end" fill="#9CA3AF">★ 3 · ⏱ 14</text>
      </g>
      <g transform="translate(262 224)">
        <rect width="220" height="40" rx="10" fill="#FFFFFF" stroke="#EEF2FA"></rect>
        <circle cx="20" cy="20" r="12" fill="#E1306C"></circle>
        <text x="20" y="24" font-size="9" font-weight="600" text-anchor="middle" fill="#FFFFFF">AD</text>
        <text x="40" y="18" font-size="11" font-weight="600" fill="#1F2937">Ali Demir</text>
        <text x="40" y="32" font-size="9" fill="#6B7280">Destek süper</text>
        <text x="208" y="18" font-size="8" font-family="JetBrains Mono, monospace" text-anchor="end" fill="#9CA3AF">11:18</text>
        <text x="208" y="32" font-size="8" font-family="JetBrains Mono, monospace" text-anchor="end" fill="#9CA3AF">★ 5 · ⏱ 12</text>
      </g>
      <g transform="translate(262 268)">
        <rect width="220" height="40" rx="10" fill="#FFFFFF" stroke="#EEF2FA"></rect>
        <circle cx="20" cy="20" r="12" fill="#0084FF"></circle>
        <text x="20" y="24" font-size="9" font-weight="600" text-anchor="middle" fill="#FFFFFF">EY</text>
        <text x="40" y="18" font-size="11" font-weight="600" fill="#1F2937">Elif Yılmaz</text>
        <text x="40" y="32" font-size="9" fill="#6B7280">Çok hızlı çözüldü</text>
        <text x="208" y="18" font-size="8" font-family="JetBrains Mono, monospace" text-anchor="end" fill="#9CA3AF">12:42</text>
        <text x="208" y="32" font-size="8" font-family="JetBrains Mono, monospace" text-anchor="end" fill="#9CA3AF">★ 5 · ⏱ 09</text>
      </g>
      <g transform="translate(262 312)">
        <rect width="220" height="40" rx="10" fill="#FFFFFF" stroke="#EEF2FA"></rect>
        <circle cx="20" cy="20" r="12" fill="#F59E0B"></circle>
        <text x="20" y="24" font-size="9" font-weight="600" text-anchor="middle" fill="#FFFFFF">ZA</text>
        <text x="40" y="18" font-size="11" font-weight="600" fill="#1F2937">Zeynep Arslan</text>
        <text x="40" y="32" font-size="9" fill="#6B7280">Fatura sorusu çözüldü</text>
        <text x="208" y="18" font-size="8" font-family="JetBrains Mono, monospace" text-anchor="end" fill="#9CA3AF">13:00</text>
        <text x="208" y="32" font-size="8" font-family="JetBrains Mono, monospace" text-anchor="end" fill="#9CA3AF">★ 4 · ⏱ 18</text>
      </g>
    </g>

    
    <g font-family="Inter, sans-serif" transform="translate(500 180)">
      <g>
        <rect width="160" height="32" rx="8" fill="#F4F0FF" stroke="#7E4FFF" stroke-width="1.5"></rect>
        <circle cx="18" cy="16" r="11" fill="#7E4FFF"></circle>
        <text x="18" y="20" font-size="9" font-weight="600" text-anchor="middle" fill="#FFFFFF">EÇ</text>
        <text x="35" y="20" font-size="10" font-weight="600" fill="#1F2937">Erkan Çatalçam</text>
        <circle cx="148" cy="16" r="4" fill="#22C55E"></circle>
      </g>
      <g transform="translate(0 38)">
        <rect width="160" height="32" rx="8" fill="#FFFFFF" stroke="#EEF2FA"></rect>
        <circle cx="18" cy="16" r="11" fill="#0084FF"></circle>
        <text x="18" y="20" font-size="9" font-weight="600" text-anchor="middle" fill="#FFFFFF">MG</text>
        <text x="35" y="20" font-size="10" fill="#1F2937">Metehan Gökay</text>
        <circle cx="148" cy="16" r="4" fill="#22C55E"></circle>
      </g>
      <g transform="translate(0 76)">
        <rect width="160" height="32" rx="8" fill="#FFFFFF" stroke="#EEF2FA"></rect>
        <circle cx="18" cy="16" r="11" fill="#E1306C"></circle>
        <text x="18" y="20" font-size="9" font-weight="600" text-anchor="middle" fill="#FFFFFF">RG</text>
        <text x="35" y="20" font-size="10" fill="#1F2937">Raşit Gür</text>
        <circle cx="148" cy="16" r="4" fill="#F59E0B"></circle>
      </g>
      <g transform="translate(0 114)">
        <rect width="160" height="32" rx="8" fill="#FFFFFF" stroke="#EEF2FA"></rect>
        <circle cx="18" cy="16" r="11" fill="#22C55E"></circle>
        <text x="18" y="20" font-size="9" font-weight="600" text-anchor="middle" fill="#FFFFFF">EU</text>
        <text x="35" y="20" font-size="10" fill="#1F2937">Erdal Uzun</text>
        <circle cx="148" cy="16" r="4" fill="#22C55E"></circle>
      </g>
    </g>

    
    <g font-family="Inter, sans-serif" transform="translate(262 370)">
      <text font-family="JetBrains Mono, monospace" font-size="9" letter-spacing="1.4" fill="#6B7280">KANAL PERFORMANSI · BU HAFTA</text>
      <g transform="translate(0 16)">
        
        <text x="0" y="14" font-size="9" fill="#1F2937">WhatsApp</text>
        <rect x="70" y="6" width="250" height="10" rx="5" fill="#EEF2FA"></rect>
        <rect x="70" y="6" width="220" height="10" rx="5" fill="#25D366"></rect>
        <text x="328" y="14" font-size="9" font-family="JetBrains Mono, monospace" fill="#1F2937">88%</text>
        
        <g transform="translate(0 22)">
          <text x="0" y="14" font-size="9" fill="#1F2937">Instagram</text>
          <rect x="70" y="6" width="250" height="10" rx="5" fill="#EEF2FA"></rect>
          <rect x="70" y="6" width="170" height="10" rx="5" fill="#E1306C"></rect>
          <text x="328" y="14" font-size="9" font-family="JetBrains Mono, monospace" fill="#1F2937">68%</text>
        </g>
        
        <g transform="translate(0 44)">
          <text x="0" y="14" font-size="9" fill="#1F2937">Messenger</text>
          <rect x="70" y="6" width="250" height="10" rx="5" fill="#EEF2FA"></rect>
          <rect x="70" y="6" width="135" height="10" rx="5" fill="#0084FF"></rect>
          <text x="328" y="14" font-size="9" font-family="JetBrains Mono, monospace" fill="#1F2937">54%</text>
        </g>
      </g>
    </g>
  </g>

  
  <g filter="url(#softShadow04)" font-family="Inter, sans-serif">
    <rect x="280" y="440" width="380" height="46" rx="14" fill="#FFFFFF"></rect>
    <text x="296" y="464" font-size="11" font-weight="600" fill="#1F2937">Müşteri Memnuniyeti</text>
    <rect x="430" y="450" width="64" height="24" rx="12" fill="#F4F7FF"></rect>
    <text x="462" y="466" font-size="9" font-weight="600" text-anchor="middle" fill="#6B7280">Kararsızım</text>
    <rect x="500" y="450" width="64" height="24" rx="12" fill="#F4F0FF"></rect>
    <text x="532" y="466" font-size="9" font-weight="600" text-anchor="middle" fill="#7E4FFF">Memnunum</text>
    <rect x="570" y="450" width="80" height="24" rx="12" fill="#7E4FFF"></rect>
    <text x="610" y="466" font-size="9" font-weight="700" text-anchor="middle" fill="#FFFFFF">Çok Memnun</text>
  </g>
</svg>