<svg xmlns="http://www.w3.org/2000/svg" viewBox="0 0 720 520" width="720" height="520" role="img" aria-labelledby="t06 d06">
  <title id="t06">Yapay Zeka Mesajlaşma Botu</title>
  <desc id="d06">7/24 çalışan, müşteri sorularını otomatik yanıtlayan dravokai AI botunun animasyonlu infografiği.</desc>

  <defs>
    <linearGradient id="bg06" x1="0" y1="0" x2="1" y2="1">
      <stop offset="0" stop-color="#F4F7FF"></stop>
      <stop offset="1" stop-color="#EAF0FF"></stop>
    </linearGradient>
    <filter id="shadow06" x="-30%" y="-30%" width="160%" height="160%">
      <feDropShadow dx="0" dy="8" stdDeviation="18" flood-color="#1B2A6B" flood-opacity="0.10"></feDropShadow>
    </filter>
    <filter id="softShadow06" x="-30%" y="-30%" width="160%" height="160%">
      <feDropShadow dx="0" dy="3" stdDeviation="6" flood-color="#1B2A6B" flood-opacity="0.10"></feDropShadow>
    </filter>
    
    <radialGradient id="pulse06" cx="0.5" cy="0.5" r="0.5">
      <stop offset="0" stop-color="#7E4FFF" stop-opacity="0.55"></stop>
      <stop offset="1" stop-color="#7E4FFF" stop-opacity="0"></stop>
    </radialGradient>
  </defs>

  <rect width="720" height="520" rx="24" fill="url(#bg06)"></rect>

  
  <g fill="none" stroke="#C9D4F2" stroke-width="1.5" stroke-dasharray="2 4">
    <circle cx="120" cy="120" r="34"></circle>
    <circle cx="600" cy="430" r="28"></circle>
  </g>

  <text x="40" y="60" font-family="JetBrains Mono, monospace" font-size="10" letter-spacing="2" fill="#6B7280">06 — YAPAY ZEKA BOT</text>
  <text x="40" y="92" font-family="Inter, sans-serif" font-size="16" font-weight="700" fill="#1F2937">7/24 çalışan dijital asistan.</text>

  
  <g transform="translate(360 290)">
    
    <circle r="120" fill="url(#pulse06)">
      
      
    </circle>
    <circle r="90" fill="url(#pulse06)" opacity="0.6">
      
      
    </circle>

    
    <circle r="58" fill="none" stroke="#7E4FFF" stroke-width="2" stroke-dasharray="4 6" opacity="0.5">
      
    </circle>

    
    <circle r="48" fill="#2752E8" filter="url(#shadow06)"></circle>
    <circle r="48" fill="none" stroke="#FFFFFF" stroke-width="2" opacity="0.18"></circle>

    
    <g fill="#FFFFFF" transform="translate(-12 -14)">
      <path d="M14 0 L17 11 L28 14 L17 17 L14 28 L11 17 L0 14 L11 11 Z" opacity="0.95"></path>
      <path d="M22 18 L23 22 L27 23 L23 24 L22 28 L21 24 L17 23 L21 22 Z" opacity="0.7"></path>
    </g>
    <text y="34" font-family="JetBrains Mono, monospace" font-size="9" letter-spacing="1.4" text-anchor="middle" fill="#FFFFFF" opacity="0.85">DRAVOKAI AI</text>
  </g>

  
  <g font-family="Inter, sans-serif">
    
    <g filter="url(#softShadow06)">
      <rect x="306" y="138" width="108" height="44" rx="22" fill="#FFFFFF"></rect>
      <circle cx="328" cy="160" r="13" fill="#22C55E"></circle>
      <text x="328" y="164" font-size="9" font-weight="700" text-anchor="middle" fill="#FFFFFF">7/24</text>
      <text x="346" y="156" font-size="10" font-weight="600" fill="#1F2937">Kesintisiz</text>
      <text x="346" y="170" font-family="JetBrains Mono, monospace" font-size="8" letter-spacing="1.2" fill="#6B7280">UYANIK</text>
    </g>

    
    <g filter="url(#softShadow06)">
      <rect x="510" y="178" width="116" height="44" rx="22" fill="#FFFFFF"></rect>
      <circle cx="532" cy="200" r="13" fill="#7E4FFF"></circle>
      <text x="532" y="204" font-size="10" font-weight="700" text-anchor="middle" fill="#FFFFFF">TR</text>
      <text x="550" y="196" font-size="10" font-weight="600" fill="#1F2937">5 dil</text>
      <text x="550" y="210" font-family="JetBrains Mono, monospace" font-size="8" letter-spacing="1.2" fill="#6B7280">TR/EN/DE/RU/AR</text>
    </g>

    
    <g filter="url(#softShadow06)">
      <rect x="510" y="298" width="160" height="44" rx="22" fill="#FFFFFF"></rect>
      <circle cx="532" cy="320" r="13" fill="#2752E8"></circle>
      <path d="M526 320l4 4 8-8" stroke="#FFFFFF" stroke-width="2" fill="none" stroke-linecap="round" stroke-linejoin="round"></path>
      <text x="550" y="316" font-size="10" font-weight="600" fill="#1F2937">Niyet analizi</text>
      <text x="550" y="330" font-family="JetBrains Mono, monospace" font-size="8" letter-spacing="1.2" fill="#6B7280">%96 DOĞRULUK</text>
    </g>

    
    <g filter="url(#softShadow06)">
      <rect x="306" y="398" width="108" height="44" rx="22" fill="#FFFFFF"></rect>
      <circle cx="328" cy="420" r="13" fill="#F59E0B"></circle>
      <path d="M322 420c0-2 2-3 4-3M328 414v6M328 420v3" stroke="#FFFFFF" stroke-width="1.5" fill="none" stroke-linecap="round"></path>
      <text x="346" y="416" font-size="10" font-weight="600" fill="#1F2937">İnsana devir</text>
      <text x="346" y="430" font-family="JetBrains Mono, monospace" font-size="8" letter-spacing="1.2" fill="#6B7280">GEREKİRSE</text>
    </g>

    
    <g filter="url(#softShadow06)">
      <rect x="92" y="298" width="160" height="44" rx="22" fill="#FFFFFF"></rect>
      <circle cx="114" cy="320" r="13" fill="#0084FF"></circle>
      <text x="114" y="324" font-size="10" font-weight="700" text-anchor="middle" fill="#FFFFFF">∇</text>
      <text x="132" y="316" font-size="10" font-weight="600" fill="#1F2937">Marka diliyle eğitim</text>
      <text x="132" y="330" font-family="JetBrains Mono, monospace" font-size="8" letter-spacing="1.2" fill="#6B7280">SİZİN SESİNİZLE</text>
    </g>

    
    <g filter="url(#softShadow06)">
      <rect x="92" y="178" width="116" height="44" rx="22" fill="#FFFFFF"></rect>
      <circle cx="114" cy="200" r="13" fill="#E1306C"></circle>
      <path d="M110 200l4-6 4 6h-3v6h-2v-6z" fill="#FFFFFF"></path>
      <text x="132" y="196" font-size="10" font-weight="600" fill="#1F2937">11 sn cevap</text>
      <text x="132" y="210" font-family="JetBrains Mono, monospace" font-size="8" letter-spacing="1.2" fill="#6B7280">ORTALAMA</text>
    </g>
  </g>

  
  <g fill="none" stroke="#A6B4DE" stroke-width="1.4" stroke-dasharray="3 4" opacity="0.55">
    <path d="M360 184 L360 240"></path>
    <path d="M504 200 C 460 220, 420 240, 405 268"></path>
    <path d="M504 320 C 460 305, 425 300, 410 295"></path>
    <path d="M360 396 L360 340"></path>
    <path d="M252 320 C 300 310, 320 300, 318 295"></path>
    <path d="M208 200 C 260 220, 300 240, 318 268"></path>
  </g>

  
  <g filter="url(#shadow06)">
    <rect x="480" y="380" width="190" height="78" rx="16" fill="#FFFFFF">
      
    </rect>
    <g>
      
      <text x="496" y="404" font-family="Inter, sans-serif" font-size="10" font-weight="600" fill="#1F2937">&#34;Spa kaçta açık?&#34;</text>
      <rect x="496" y="414" width="158" height="32" rx="10" fill="#F4F0FF"></rect>
      <text x="506" y="429" font-family="Inter, sans-serif" font-size="9" fill="#1F2937">Spa hizmetimiz 09:00 –</text>
      <text x="506" y="441" font-family="Inter, sans-serif" font-size="9" fill="#1F2937">22:00 arası açıktır 🌿</text>
    </g>
  </g>

  
  <g filter="url(#shadow06)">
    <rect x="48" y="380" width="180" height="64" rx="16" fill="#FFFFFF">
      
    </rect>
    <g>
      
      <rect x="64" y="394" width="148" height="16" rx="8" fill="#2752E8"></rect>
      <text x="73" y="406" font-family="Inter, sans-serif" font-size="9" font-weight="600" fill="#FFFFFF">Merhaba 👋 nasıl yardımcı</text>
      <rect x="64" y="416" width="100" height="14" rx="7" fill="#F4F7FF"></rect>
      <text x="73" y="427" font-family="Inter, sans-serif" font-size="8" fill="#1F2937">olabilirim?</text>
    </g>
  </g>

  
  <g>
    <circle cx="650" cy="100" r="4" fill="#7E4FFF">
      
    </circle>
    <circle cx="60" cy="240" r="3" fill="#2752E8">
      
    </circle>
    <circle cx="690" cy="260" r="3" fill="#22C55E">
      
    </circle>
  </g>
</svg>